<?xml version="1.0" standalone="no"?>
<!DOCTYPE svg PUBLIC "-//W3C//DTD SVG 20010904//EN"
 "http://www.w3.org/TR/2001/REC-SVG-20010904/DTD/svg10.dtd">
<svg version="1.0" xmlns="http://www.w3.org/2000/svg"
 width="2102.000000pt" height="2102.000000pt" viewBox="0 0 2102.000000 2102.000000"
 preserveAspectRatio="xMidYMid meet">
<metadata>
Created by potrace 1.11, written by Peter Selinger 2001-2013
</metadata>
<g transform="translate(0.000000,2102.000000) scale(0.100000,-0.100000)"
fill="#000000" stroke="none">
<path d="M10151 19759 c-1 -3 -24 -115 -52 -250 -28 -134 -55 -264 -60 -288
-5 -23 -14 -62 -20 -85 -6 -22 -13 -52 -15 -66 -17 -100 -163 -675 -243 -955
-71 -249 -201 -675 -218 -715 -3 -8 -7 -19 -8 -25 -2 -5 -17 -50 -34 -100 -18
-49 -43 -124 -57 -165 -43 -126 -169 -456 -240 -630 -36 -91 -75 -186 -85
-212 -10 -25 -34 -81 -54 -123 -19 -42 -35 -78 -35 -81 0 -29 -407 -858 -517
-1054 -11 -19 -37 -66 -58 -105 -20 -38 -46 -82 -56 -97 -11 -14 -19 -29 -19
-33 0 -15 -317 -549 -435 -730 -17 -27 -54 -84 -80 -125 -71 -110 -292 -441
-368 -550 -37 -52 -71 -102 -77 -110 -6 -8 -44 -62 -85 -120 -41 -58 -80 -113
-87 -123 -49 -71 -527 -718 -538 -727 -3 -3 -33 -41 -66 -85 -61 -83 -72 -97
-114 -149 -14 -17 -39 -49 -55 -71 -16 -22 -33 -44 -37 -50 -5 -5 -16 -20 -26
-32 -23 -28 -72 -92 -188 -243 -53 -69 -109 -141 -125 -160 -68 -83 -337 -430
-364 -471 -16 -24 -33 -46 -36 -49 -8 -8 -150 -226 -195 -300 -63 -106 -90
-156 -177 -331 -101 -204 -96 -193 -163 -364 -84 -213 -90 -230 -134 -375 -22
-74 -45 -148 -50 -165 -48 -159 -116 -492 -146 -720 -3 -22 -7 -51 -10 -65 -2
-14 -6 -56 -10 -95 -3 -38 -8 -81 -10 -95 -18 -110 -25 -696 -10 -885 17 -219
24 -283 47 -435 6 -36 13 -80 15 -99 3 -19 9 -53 14 -78 6 -24 13 -60 16 -81
9 -62 83 -361 115 -467 125 -407 284 -784 464 -1100 38 -66 73 -129 80 -140
31 -55 67 -111 144 -225 151 -224 278 -388 446 -579 22 -25 45 -51 50 -57 34
-40 295 -300 356 -355 480 -433 1013 -768 1599 -1006 201 -82 548 -195 700
-228 8 -2 47 -11 85 -20 93 -22 85 -21 205 -44 170 -33 353 -59 545 -77 274
-25 728 -24 975 2 25 2 68 7 95 10 146 15 383 53 525 84 47 10 96 21 110 24
162 30 669 193 845 271 301 134 537 253 665 335 8 5 40 24 70 42 468 276 1013
750 1366 1190 42 51 82 102 91 112 9 11 39 52 67 90 28 39 53 73 56 76 18 15
270 404 270 415 0 2 20 38 45 79 43 74 188 360 232 461 100 226 208 534 267
760 21 77 41 156 47 175 5 19 11 46 13 60 2 14 11 57 20 95 9 39 18 82 20 98
3 15 9 53 15 85 5 31 12 77 15 102 4 25 8 56 10 70 6 38 15 108 21 170 3 30 8
73 10 95 8 74 18 349 18 470 0 119 -12 401 -18 433 -1 9 -6 51 -9 92 -8 91
-43 338 -56 400 -5 25 -12 56 -14 70 -39 220 -163 662 -226 805 -5 11 -17 45
-28 75 -71 196 -260 586 -397 818 -57 96 -194 307 -248 382 -56 79 -373 506
-400 540 -7 8 -70 94 -142 190 -71 96 -133 180 -137 185 -38 46 -588 801 -671
920 -15 22 -53 76 -84 120 -178 251 -438 637 -605 895 -116 180 -338 539 -338
546 0 2 -15 27 -33 56 -19 29 -45 73 -59 98 -14 25 -62 108 -105 185 -44 77
-101 181 -128 230 -26 50 -56 104 -65 120 -30 52 -193 365 -195 375 -1 3 -35
75 -77 160 -88 180 -178 370 -178 376 0 2 -16 39 -36 81 -20 43 -54 121 -76
173 -22 52 -46 109 -53 125 -15 36 -100 241 -125 305 -10 25 -39 101 -65 170
-25 69 -50 134 -55 145 -51 112 -332 970 -391 1193 -10 34 -18 63 -43 152 -67
237 -167 635 -236 935 -22 99 -45 200 -51 225 -5 25 -18 86 -29 135 -10 50
-18 88 -19 84z"/>
</g>
</svg>
